<svg width="512" height="512" viewBox="0 0 512 512" fill="none" xmlns="http://www.w3.org/2000/svg">
<g filter="url(#filter0_d_1_79)">
<path fill-rule="evenodd" clip-rule="evenodd" d="M91.6175 95.5867C88.43 97.0144 84.894 97.8088 81.1715 97.8088C67.1039 97.8088 55.6998 86.4631 55.6998 72.4675C55.6998 58.4719 67.1039 47.1262 81.1715 47.1262C95.2392 47.1262 106.643 58.4719 106.643 72.4675C106.643 77.6567 105.075 82.4816 102.385 86.499L135.202 118.543H167.621V132.365H127.484L91.6175 95.5867ZM81.1715 60.9487C74.7772 60.9487 69.5935 66.1059 69.5935 72.4675C69.5935 78.8292 74.7772 83.9863 81.1715 83.9863C87.5659 83.9863 92.7496 78.8292 92.7496 72.4675C92.7496 66.1059 87.5659 60.9487 81.1715 60.9487Z" fill="url(#paint0_linear_1_79)"/>
<path fill-rule="evenodd" clip-rule="evenodd" d="M86.7141 177.544C83.2539 187.454 73.7852 194.567 62.6467 194.567C48.579 194.567 37.175 183.221 37.175 169.225C37.175 155.23 48.579 143.884 62.6467 143.884C74.8603 143.884 85.0662 152.436 87.5441 163.85H167.621V177.672L86.7141 177.544ZM62.6467 157.706C56.2523 157.706 51.0686 162.864 51.0686 169.225C51.0686 175.587 56.2523 180.744 62.6467 180.744C69.041 180.744 74.2247 175.587 74.2247 169.225C74.2247 162.864 69.041 157.706 62.6467 157.706Z" fill="url(#paint1_linear_1_79)"/>
<path fill-rule="evenodd" clip-rule="evenodd" d="M439.349 163.457C433.675 158.809 430.057 151.767 430.057 143.884C430.057 129.888 441.461 118.543 455.528 118.543C469.596 118.543 481 129.888 481 143.884C481 157.88 469.596 169.225 455.528 169.225C453.876 169.225 452.261 169.069 450.696 168.77L451.669 169.225L423.882 197.153V322.809L396.094 350.454V372.705C407.178 375.451 415.391 385.42 415.391 397.297C415.391 411.293 403.987 422.638 389.919 422.638C375.852 422.638 364.448 411.293 364.448 397.297C364.448 386.263 371.536 376.876 381.429 373.398V345.078L409.988 317.433V191.495L438.547 163.082L439.349 163.457ZM455.528 132.365C449.134 132.365 443.95 137.522 443.95 143.884C443.95 150.246 449.134 155.403 455.528 155.403C461.923 155.403 467.106 150.246 467.106 143.884C467.106 137.522 461.923 132.365 455.528 132.365ZM378.341 397.297C378.341 390.935 383.525 385.778 389.919 385.778C396.314 385.778 401.497 390.935 401.497 397.297C401.497 403.659 396.314 408.816 389.919 408.816C383.525 408.816 378.341 403.659 378.341 397.297Z" fill="url(#paint2_linear_1_79)"/>
</g>
<g filter="url(#filter1_d_1_79)">
<path fill-rule="evenodd" clip-rule="evenodd" d="M402.269 32.5358H312.732L332.801 54.8055V170.761H246.352V31H158.358C158.358 31 176.883 48.6622 181.515 54.0376C186.146 59.4129 189.233 70.1638 189.233 70.1638C189.233 70.1638 191.692 330.188 189.233 341.239C186.775 352.29 181.515 357.365 181.515 357.365C181.515 357.365 173.796 367.348 162.99 371.188C152.184 375.027 138.29 372.724 133.659 371.188C129.027 369.652 123.982 367.61 118.993 363.509C114.203 359.57 111.934 356.65 108.959 351.222C106.357 346.475 104.441 342.007 104.328 338.167C104.214 334.328 104.328 254.464 104.328 254.464H31L49.5249 273.662C49.5249 273.662 49.5148 328.184 50.2967 340.471C50.9722 351.085 51.5007 352.632 53.239 357.719C53.5129 358.521 53.8168 359.41 54.1561 360.437C57.6949 371.146 61.2955 376.727 68.0497 385.778C75.1648 395.313 79.9912 400.319 89.6621 407.28C101.244 415.616 109.111 418.719 122.852 422.638C128.195 424.162 131.24 424.954 136.746 425.71C146.003 426.982 160.674 425.71 160.674 425.71C160.674 425.71 169.716 424.251 175.34 422.638C185.456 419.737 191.045 417.332 200.039 411.887C209.733 406.019 214.917 401.923 222.424 393.457C228.894 386.16 232.062 381.486 236.317 372.724C241.506 362.042 244.808 354.294 244.808 343.543C244.808 332.792 246.352 222.212 246.352 222.212H334.345V337.399L235.401 432.637C232.158 431.148 228.546 430.317 224.739 430.317C210.672 430.317 199.268 441.663 199.268 455.659C199.268 469.654 210.672 481 224.739 481C238.807 481 250.211 469.654 250.211 455.659C250.211 450.884 248.883 446.417 246.575 442.604L384.516 310.522V52.5017L402.269 32.5358ZM213.161 455.659C213.161 449.297 218.345 444.14 224.739 444.14C231.134 444.14 236.317 449.297 236.317 455.659C236.317 462.02 231.134 467.177 224.739 467.177C218.345 467.177 213.161 462.02 213.161 455.659Z" fill="url(#paint3_linear_1_79)"/>
</g>
<defs>
<filter id="filter0_d_1_79" x="33.175" y="47.1262" width="451.825" height="383.512" filterUnits="userSpaceOnUse" color-interpolation-filters="sRGB">
<feFlood flood-opacity="0" result="BackgroundImageFix"/>
<feColorMatrix in="SourceAlpha" type="matrix" values="0 0 0 0 0 0 0 0 0 0 0 0 0 0 0 0 0 0 127 0" result="hardAlpha"/>
<feOffset dy="4"/>
<feGaussianBlur stdDeviation="2"/>
<feComposite in2="hardAlpha" operator="out"/>
<feColorMatrix type="matrix" values="0 0 0 0 0 0 0 0 0 0 0 0 0 0 0 0 0 0 0.25 0"/>
<feBlend mode="normal" in2="BackgroundImageFix" result="effect1_dropShadow_1_79"/>
<feBlend mode="normal" in="SourceGraphic" in2="effect1_dropShadow_1_79" result="shape"/>
</filter>
<filter id="filter1_d_1_79" x="27" y="31" width="379.269" height="458" filterUnits="userSpaceOnUse" color-interpolation-filters="sRGB">
<feFlood flood-opacity="0" result="BackgroundImageFix"/>
<feColorMatrix in="SourceAlpha" type="matrix" values="0 0 0 0 0 0 0 0 0 0 0 0 0 0 0 0 0 0 127 0" result="hardAlpha"/>
<feOffset dy="4"/>
<feGaussianBlur stdDeviation="2"/>
<feComposite in2="hardAlpha" operator="out"/>
<feColorMatrix type="matrix" values="0 0 0 0 0 0 0 0 0 0 0 0 0 0 0 0 0 0 0.25 0"/>
<feBlend mode="normal" in2="BackgroundImageFix" result="effect1_dropShadow_1_79"/>
<feBlend mode="normal" in="SourceGraphic" in2="effect1_dropShadow_1_79" result="shape"/>
</filter>
<linearGradient id="paint0_linear_1_79" x1="111.66" y1="47.1262" x2="111.66" y2="132.365" gradientUnits="userSpaceOnUse">
<stop stop-color="#9DC466"/>
<stop offset="1" stop-color="#6F8A4D"/>
</linearGradient>
<linearGradient id="paint1_linear_1_79" x1="102.398" y1="143.884" x2="102.398" y2="194.567" gradientUnits="userSpaceOnUse">
<stop stop-color="#9DC466"/>
<stop offset="1" stop-color="#6F8A4D"/>
</linearGradient>
<linearGradient id="paint2_linear_1_79" x1="422.724" y1="118.543" x2="422.724" y2="422.638" gradientUnits="userSpaceOnUse">
<stop stop-color="#9DC466"/>
<stop offset="1" stop-color="#6F8A4D"/>
</linearGradient>
<linearGradient id="paint3_linear_1_79" x1="385.288" y1="38.6791" x2="131.647" y2="433.807" gradientUnits="userSpaceOnUse">
<stop stop-color="#B5C5AA"/>
<stop offset="0.400309" stop-color="#9BA59C"/>
<stop offset="1" stop-color="#737A78"/>
</linearGradient>
</defs>
</svg>
