<!DOCTYPE svg PUBLIC "-//W3C//DTD SVG 1.1//EN" "http://www.w3.org/Graphics/SVG/1.1/DTD/svg11.dtd">
<!-- Uploaded to: SVG Repo, www.svgrepo.com, Transformed by: SVG Repo Mixer Tools -->
<svg width="800px" height="800px" viewBox="0 0 32 32" id="OBJECT" xmlns="http://www.w3.org/2000/svg" fill="#ffffff" stroke="#ffffff">
<g id="SVGRepo_bgCarrier" stroke-width="0"/>
<g id="SVGRepo_tracerCarrier" stroke-linecap="round" stroke-linejoin="round"/>
<g id="SVGRepo_iconCarrier">
<defs>
<style>.cls-1{fill:#7f8c8d;}</style>
</defs>
<title/>
<path class="cls-1" d="M24,8H12.54L10.83,5.45A1,1,0,0,0,10,5H8A3,3,0,0,0,5,8v5a1,1,0,0,0,1,1H26a1,1,0,0,0,1-1V11A3,3,0,0,0,24,8Z"/>
<rect height="6" rx="1" ry="1" width="26" x="3" y="12"/>
<path class="cls-1" d="M30.81,16.42A1,1,0,0,0,30,16H2a1,1,0,0,0-.81.42,1,1,0,0,0-.14.9l3,9A1,1,0,0,0,5,27H27a1,1,0,0,0,.95-.68l3-9A1,1,0,0,0,30.81,16.42Z"/>
<path d="M10,24H8a1,1,0,0,1,0-2h2a1,1,0,0,1,0,2Z"/>
</g>
</svg>