<svg xmlns="http://www.w3.org/2000/svg" viewBox="0 0 470 97" width="970" height="200">
    <style>
        svg path {
            fill: transparent;
            stroke: white;
            stroke-width: 1px;
            stroke-dasharray: 500;
            stroke-dashoffset: 500;
            animation: textAnimation 10s ease-in-out infinite;
        }

        @keyframes textAnimation {
            0% {
                stroke-dashoffset: 500;
            }

            60% {
                fill: transparent;
            }

            75% {
                fill: white;
                stroke-dashoffset: 0;
            }
        
            95% {
                fill: white;
                stroke-dashoffset: 0;
            }

            100% {
                fill: transparent;
                stroke-dashoffset: 500;
            }
        }
    </style>
    <path
        d="M2.31625 80.7347C0.834145 75.8168 0.0930922 72.5832 0.0930922 71.0337C0.0930922 69.5516 2.14783 65.9137 6.2573 60.12L12.3205 51.4295L11.411 60.2211L10.5015 69.0126H14.7457C18.8552 69.0126 23.0994 65.9811 27.4784 59.9179C31.8573 53.8547 34.9226 46.7811 36.6741 38.6968C37.3478 35.5979 37.651 33.4084 37.5836 32.1284C37.5162 30.7811 36.9436 29.3326 35.8657 27.7832C34.7205 26.0316 33.7773 25.0884 33.0363 24.9537C32.2952 24.7516 30.6447 25.1558 28.0847 26.1663C24.7836 27.5137 22.4931 27.9179 21.2131 27.3789C19.9331 26.84 18.9899 25.0211 18.3836 21.9221C17.7773 18.7558 18.0468 16.4316 19.192 14.9495C20.3373 13.4674 22.8973 12.0863 26.872 10.8063C31.251 9.45895 33.7099 8.21264 34.2489 7.06737C34.5184 6.59579 35.3268 6.22527 36.6741 5.95579C38.0889 5.61895 39.672 5.5179 41.4236 5.65264C45.4657 5.92211 49.3394 5.28211 53.0447 3.73263C56.211 2.45263 57.6931 2.21685 57.491 3.02527C57.2215 3.96843 55.2341 5.5179 51.5289 7.67369L46.3752 10.8063L48.3962 19.0926C49.6089 24.5495 49.8447 29.3663 49.1036 33.5432C48.3626 37.6526 46.2068 44.0863 42.6362 52.8442C39.0657 61.6021 34.8889 68.7768 30.1057 74.3684C25.3226 79.96 20.1689 83.6989 14.6447 85.5853C9.92888 87.2021 7.06572 88.0105 6.0552 88.0105C5.04467 88.0105 3.79836 85.5853 2.31625 80.7347ZM95.7584 88.6168C95.152 83.9011 95.1184 79.8253 95.6573 76.3895C96.1962 72.9537 97.4426 68.8105 99.3962 63.96C100.205 62.0737 100.777 60.2884 101.114 58.6042C101.518 56.92 101.586 55.9432 101.316 55.6737C100.71 55.0674 97.1731 55.3368 90.7057 56.4821C84.3057 57.56 79.9268 58.6716 77.5689 59.8168C76.2215 60.4905 75.211 61.4 74.5373 62.5453C73.931 63.6905 73.392 65.5768 72.9205 68.2042C72.7184 69.5516 72.112 70.9663 71.1015 72.4484C70.1584 73.9305 69.3836 75.4126 68.7773 76.8947L65.1394 86.3937L64.2299 80.3305C63.691 76.6253 63.3541 72.0442 63.2194 66.5874L62.512 66.4863L57.5605 69.0126C54.3268 70.7642 52.1373 71.64 50.992 71.64C48.9036 71.64 47.051 69.6526 45.4341 65.6779C43.7499 61.6358 43.3457 58.2337 44.2215 55.4716C44.8278 53.6526 47.1184 52.5074 51.0931 52.0358C52.2384 51.9011 54.2594 51.6653 57.1562 51.3284C59.9857 50.9242 61.9731 50.6547 63.1184 50.52L69.0805 49.8126L71.3036 40.4147C72.1794 36.6421 72.651 33.7789 72.7184 31.8253C72.7857 29.8042 72.4826 27.5811 71.8089 25.1558C71.0678 22.3937 70.7984 20.4737 71.0005 19.3958C71.2699 18.2505 72.2805 16.5326 74.032 14.2421C76.6594 10.8063 79.2194 9.08842 81.712 9.08842C84.272 9.02106 86.2594 10.6716 87.6741 14.04C89.2236 17.8126 89.7289 21.3158 89.1899 24.5495C88.7184 27.7158 87.0005 31.9937 84.0363 37.3832C80.3984 44.12 78.7815 47.6905 79.1857 48.0947C79.4552 48.3642 82.7562 48.1284 89.0889 47.3874C95.4889 46.5789 100.575 45.8042 104.348 45.0632C105.83 44.7937 106.672 44.4232 106.874 43.9516C107.144 43.2105 106.672 39.8758 105.459 33.9474C105.325 33.2737 105.224 32.7011 105.156 32.2295C104.752 30.1411 104.819 28.2547 105.358 26.5705C105.965 24.819 107.548 21.8547 110.108 17.6779C113.476 12.0863 116.272 8.65053 118.495 7.37053C120.786 6.09053 122.942 6.69685 124.963 9.18948C126.714 11.3453 127.893 14.0063 128.499 17.1726C128.904 19.1937 128.803 21.1474 128.196 23.0337C127.59 24.8526 126.074 28.0526 123.649 32.6337C120.483 38.5621 118.933 41.8632 119 42.5368C119.135 42.9411 119.809 43.1432 121.022 43.1432C122.84 43.1432 126.377 44.3558 131.632 46.7811L139.009 50.2168L128.904 52.8442C122.571 54.4611 117.99 55.2695 115.16 55.2695C113.476 55.3368 112.264 55.9432 111.523 57.0884C110.849 58.2337 109.636 61.6021 107.885 67.1937C105.459 75.2779 102.967 82.0821 100.407 87.6063L96.6678 96.2968L95.7584 88.6168ZM130.071 85.2821C128.589 83.3958 127.511 80.8021 126.837 77.5011C126.096 74.1326 126.062 71.4716 126.736 69.5179C127.342 67.7663 127.578 66.7558 127.443 66.4863C127.241 66.1495 126.399 66.1158 124.917 66.3853C123.57 66.6547 122.593 66.4863 121.986 65.88C121.38 65.2737 120.74 63.7579 120.066 61.3326C119.258 58.6379 118.921 56.8863 119.056 56.0779C119.123 55.2695 119.831 54.2926 121.178 53.1474C123.064 51.5979 126.837 50.2168 132.496 49.0042L140.883 47.1853L153.616 27.7832C162.104 14.9158 167.325 7.80842 169.279 6.46105C173.456 3.49684 176.791 3.90105 179.283 7.67369C182.113 11.8505 182.887 18.2168 181.607 26.7726C181.203 29.1979 180.664 31.6568 179.991 34.1495C178.104 40.9537 177.229 45.0295 177.363 46.3768C177.565 47.7916 178.643 48.8358 180.597 49.5095C181.271 49.7116 182.685 50.0821 184.841 50.6211L192.521 52.44L184.235 52.8442L175.746 53.2484V62.04C175.746 67.8337 174.972 72.1789 173.422 75.0758L171.199 79.5221L169.481 72.6505C168.269 68.1368 167.662 63.6905 167.662 59.3116L167.561 52.8442L161.195 53.7537C157.018 54.36 153.919 54.9663 151.898 55.5726C149.944 56.1116 148.159 57.2232 146.542 58.9074C144.925 60.5916 143.746 62.5789 143.005 64.8695C142.332 67.16 141.523 70.6968 140.58 75.48C139.3 81.6779 137.313 85.4505 134.618 86.7979C132.934 87.6063 131.384 87.1011 129.97 85.2821H130.071ZM169.683 41.9305C170.222 39.3705 170.357 36.1368 170.087 32.2295L169.683 26.7726L163.822 32.6337C159.645 37.08 156.883 40.28 155.536 42.2337L153.01 45.6695L160.993 45.9726L168.875 46.2758L169.683 41.9305ZM223.4 87.1011C223.4 86.36 223.871 83.0253 224.814 77.0968C225.017 75.9516 225.252 74.4695 225.522 72.6505C225.859 70.8316 226.128 69.2821 226.33 68.0021C226.6 66.7221 226.768 65.7789 226.835 65.1726C227.038 63.8926 226.937 63.2863 226.532 63.3537C225.926 63.4211 223.433 65.7789 219.054 70.4274C214.675 75.0758 210.903 78.3768 207.737 80.3305C204.57 82.2168 201.303 83.16 197.934 83.16C195.846 83.16 194.398 82.5874 193.589 81.4421C192.848 80.2968 191.568 76.8611 189.749 71.1347C188.873 68.3053 189.042 64.2632 190.254 59.0084C191.534 53.6863 194.364 45.2653 198.743 33.7453C204.065 19.3958 208.444 11.2442 211.88 9.29053C214.035 8.14527 216.259 8.81895 218.549 11.3116C220.099 13.0632 221.109 15.9263 221.581 19.9011C222.12 23.8758 221.85 26.8737 220.772 28.8947C219.492 30.9158 217.404 32.5663 214.507 33.8463C211.88 34.9916 209.286 37.3495 206.726 40.92C204.233 44.4905 202.044 49.0042 200.158 54.4611C198.945 57.8295 198.238 60.4568 198.035 62.3432C197.833 64.1621 198.103 65.5095 198.844 66.3853C199.585 67.2611 200.899 67.8 202.785 68.0021C204.671 68.2042 206.355 67.8337 207.838 66.8905C209.387 65.9474 212.048 63.5895 215.821 59.8168C227.273 48.3642 233.909 38.0905 235.728 28.9958C236.873 23.6063 237.951 19.7663 238.962 17.4758C239.972 15.1179 241.219 13.7032 242.701 13.2316C244.924 12.4905 246.911 13.299 248.663 15.6568C250.414 18.0147 251.358 20.7768 251.492 23.9432C251.627 27.1095 250.953 30.0063 249.471 32.6337C244.284 40.1116 240.343 48.8695 237.648 58.9074C236.166 64.2968 234.01 69.6526 231.181 74.9747C230.305 76.5242 228.318 80.1284 225.219 85.7874C224.006 88.0105 223.4 88.4484 223.4 87.1011ZM260.086 82.7558C258.536 80.3979 257.29 77.0295 256.347 72.6505C255.404 68.2716 255.168 64.9032 255.64 62.5453C256.785 57.0884 260.288 49.1053 266.149 38.5958C272.077 28.0189 277.366 20.3726 282.014 15.6568C283.833 13.7705 286.461 12.0863 289.896 10.6042C293.332 9.12211 296.263 8.38106 298.688 8.38106C300.44 8.38106 302.259 9.76211 304.145 12.5242C306.031 15.2863 307.446 18.5537 308.389 22.3263C309.332 26.099 309.467 29.2653 308.793 31.8253C308.254 33.7789 306.907 35.5642 304.751 37.1811C302.595 38.7979 300.069 39.8758 297.172 40.4147C295.353 40.7516 294.174 40.7516 293.635 40.4147C293.096 40.0105 292.557 38.7642 292.019 36.6758C291.21 33.3747 291.21 31.0168 292.019 29.6021C293.231 27.1095 292.995 25.9642 291.311 26.1663C289.021 26.3684 285.955 28.2547 282.115 31.8253C280.364 33.5095 278.814 35.2611 277.467 37.08C274.637 40.92 272.01 45.4337 269.585 50.6211C267.227 55.8084 265.745 60.2211 265.139 63.8589C264.734 66.3516 264.667 67.9347 264.936 68.6084C265.273 69.2147 266.284 69.72 267.968 70.1242C273.762 71.5389 282.284 69.72 293.534 64.6674C300.608 61.5011 304.414 59.9179 304.953 59.9179C305.29 59.9179 303.471 61.5347 299.496 64.7684C295.522 68.0021 291.176 71.4379 286.461 75.0758C281.745 78.6463 278.612 80.9368 277.063 81.9474C274.974 83.2947 271.875 84.3053 267.766 84.9789C265.273 85.3832 263.589 85.4842 262.713 85.2821C261.837 85.0126 260.962 84.1705 260.086 82.7558ZM311.589 82.7558C310.511 80.8695 309.736 77.7705 309.265 73.4589C308.928 70.5621 309.029 68.0695 309.568 65.9811C310.107 63.8253 311.589 60.12 314.014 54.8653C317.787 46.7137 320.818 39.5726 323.109 33.4421C325.399 27.3116 326.309 23.9095 325.837 23.2358C325.164 22.2253 325.972 18.9916 328.262 13.5347C330.62 8.0779 332.439 5.11369 333.719 4.64211C335.538 3.96842 337.189 4.13684 338.671 5.14737C340.153 6.1579 341.332 7.90948 342.208 10.4021C343.69 14.6463 343.656 19.2274 342.107 24.1453C340.625 29.0632 337.896 33.3747 333.921 37.08L329.879 40.7179H333.921C336.279 40.7179 339.85 39.6737 344.633 37.5853C349.484 35.4968 354.031 33.0042 358.275 30.1074C362.25 27.4126 365.147 25.8632 366.966 25.459C368.785 25.0547 370.3 25.56 371.513 26.9747C373.197 28.7937 374.376 31.6905 375.05 35.6653C375.791 39.64 375.589 42.2 374.444 43.3453C374.241 43.5474 371.21 44.019 365.349 44.76C360.161 45.3663 354.334 47.2526 347.867 50.4189L339.176 54.6632L340.49 61.9389L341.804 69.0126L347.766 70.0232C353.627 71.0337 361.879 70.4947 372.524 68.4063C373.804 68.1368 373.467 68.6758 371.513 70.0232C366.528 73.3242 359.252 77.1642 349.686 81.5432C345.711 83.3621 343.016 84.44 341.601 84.7768C338.435 85.5179 335.976 84.9453 334.225 83.0589C332.54 81.1053 331.058 77.1642 329.778 71.2358C328.229 64.0274 326.41 59.6484 324.321 58.0989C323.244 57.2905 322.401 57.6947 321.795 59.3116C321.121 61.0632 320.549 65.0379 320.077 71.2358C319.471 78.8484 318.022 83.4295 315.732 84.9789C314.317 85.9221 312.936 85.1811 311.589 82.7558ZM382.93 84.0695C380.033 83.1937 377.877 81.3074 376.463 78.4105C375.519 76.5242 375.115 74.7053 375.25 72.9537C375.385 71.2021 376.159 67.5979 377.574 62.1411C379.73 53.7874 383.334 43.8505 388.387 32.3305C393.507 20.8105 398.256 12.7937 402.635 8.28001C403.713 7.20211 404.791 5.98948 405.869 4.64211C407.014 3.29474 407.789 2.41895 408.193 2.01474C408.665 1.54316 409.204 1.17264 409.81 0.903162C410.484 0.633688 411.258 0.600004 412.134 0.802111C415.503 1.54316 417.658 2.65474 418.602 4.13684C419.612 5.61895 419.882 8.11158 419.41 11.6147C419.343 12.2884 419.242 14.1747 419.107 17.2737C419.039 20.3726 418.837 22.36 418.501 23.2358C417.827 25.0547 417.086 26.1663 416.277 26.5705C415.469 26.9074 413.515 27.0421 410.416 26.9747C409.002 26.9074 407.654 27.2442 406.374 27.9853C405.094 28.7263 403.848 29.9053 402.635 31.5221C401.49 33.0716 400.412 34.6547 399.402 36.2716C398.458 37.8884 397.246 39.9768 395.764 42.5368C394.349 45.0968 393.035 47.2526 391.823 49.0042C388.454 54.0568 387.309 56.5832 388.387 56.5832C389.061 56.5158 390.408 55.4042 392.429 53.2484C394.989 50.4863 398.189 48.6337 402.029 47.6905C405.869 46.68 409.204 46.7811 412.033 47.9937C414.93 49.2063 416.378 51.2274 416.378 54.0568C416.378 59.9853 414.661 65.5768 411.225 70.8316C407.789 76.0863 403.444 79.9937 398.189 82.5537C392.934 85.0463 387.848 85.5516 382.93 84.0695ZM391.823 62.5453C390.004 61.4674 388.825 61.0295 388.286 61.2316C387.814 61.4337 387.848 62.3432 388.387 63.96C388.858 65.3747 390.105 65.8126 392.126 65.2737L395.056 64.4653L391.823 62.5453ZM428.373 81.0379C429.047 76.9958 430.394 72.5832 432.415 67.8C434.773 62.3432 435.75 59.2779 435.346 58.6042C435.144 58.2674 434.571 58.0989 433.628 58.0989C432.483 58.0989 431.876 57.7958 431.809 57.1895C431.809 56.5832 432.281 54.3263 433.224 50.4189C433.965 47.5895 434.874 45.7705 435.952 44.9621C437.097 44.0863 439.725 43.4126 443.834 42.9411C446.057 42.7389 448.247 40.4821 450.403 36.1705C452.222 32.5326 452.963 30.5116 452.626 30.1074C452.424 29.9053 451.885 29.8042 451.009 29.8042C449.325 29.8042 446.125 30.6126 441.409 32.2295C437.704 33.5095 434.032 33.9474 430.394 33.5432C426.756 33.139 424.938 32.1284 424.938 30.5116C424.938 23.3032 427.026 18.7558 431.203 16.8695C434.167 15.5221 436.727 14.8484 438.883 14.8484C440.971 14.8484 444.845 13.8042 450.504 11.7158C454.007 10.5032 456.601 9.82948 458.285 9.69474C459.969 9.49264 461.721 9.72842 463.54 10.4021C466.571 11.6147 468.323 12.8947 468.794 14.2421C469.468 16.0611 469.131 19.4295 467.784 24.3474C466.436 29.1979 464.752 33.3411 462.731 36.7768L459.093 42.9411L464.348 45.2653C467.851 46.7474 469.603 47.8926 469.603 48.7011C469.468 50.2505 467.615 52.1705 464.045 54.4611C460.542 56.7516 457.039 58.2337 453.535 58.9074C449.763 59.7832 447.304 60.76 446.159 61.8379C445.013 62.8484 443.026 65.9137 440.196 71.0337C434.268 82.0147 430.462 87.2358 428.777 86.6968C427.969 86.4274 427.834 84.5411 428.373 81.0379Z" />
</svg>
